<?xml version="1.0" standalone="no"?>
<!DOCTYPE svg PUBLIC "-//W3C//DTD SVG 20010904//EN"
 "http://www.w3.org/TR/2001/REC-SVG-20010904/DTD/svg10.dtd">
<svg version="1.0" xmlns="http://www.w3.org/2000/svg"
 width="768.000000pt" height="768.000000pt" viewBox="0 0 768.000000 768.000000"
 preserveAspectRatio="xMidYMid meet">
<metadata>
Created by potrace 1.11, written by Peter Selinger 2001-2013
</metadata>
<g transform="translate(0.000000,768.000000) scale(0.100000,-0.100000)"
fill="#000000" stroke="none">
<path d="M3398 7665 c-1 -2 -68 -6 -148 -10 -176 -9 -206 -11 -295 -19 -38 -4
-95 -9 -125 -11 -70 -5 -161 -14 -225 -22 -27 -3 -61 -7 -75 -8 -14 -2 -28 -3
-32 -4 -3 -1 -9 -16 -13 -33 -16 -81 -69 -256 -109 -361 -14 -37 -25 -68 -25
-70 3 -24 -209 -485 -275 -597 -143 -241 -200 -336 -205 -340 -3 -3 -41 -57
-84 -120 -98 -144 -122 -178 -153 -212 -13 -15 -24 -30 -24 -34 0 -3 -16 -24
-35 -47 -19 -23 -53 -64 -76 -92 -105 -127 -162 -190 -288 -315 -75 -75 -156
-151 -180 -170 -24 -19 -49 -41 -56 -47 -8 -7 -16 -13 -20 -13 -4 0 -13 -7
-21 -15 -8 -8 -22 -19 -31 -24 -15 -8 -14 -12 8 -38 13 -16 35 -44 49 -63 14
-18 50 -65 80 -104 31 -39 73 -96 95 -126 22 -30 42 -57 45 -60 21 -18 326
-472 430 -640 122 -197 131 -212 152 -242 10 -15 18 -30 18 -32 0 -3 17 -34
38 -68 83 -136 255 -442 372 -663 29 -55 61 -113 71 -130 24 -41 354 -702 424
-850 50 -105 151 -323 190 -410 8 -16 32 -70 54 -118 23 -49 41 -91 41 -93 0
-2 16 -38 35 -80 19 -41 35 -77 35 -79 0 -3 11 -28 24 -57 55 -122 70 -157
101 -233 18 -44 42 -101 54 -127 11 -26 21 -50 21 -53 0 -3 9 -25 19 -48 10
-23 44 -105 75 -182 31 -77 61 -149 66 -160 7 -17 121 -304 151 -382 5 -13 14
-20 22 -17 19 7 20 3724 1 3724 -7 0 -25 10 -39 23 -24 20 -27 30 -31 110 -2
48 -6 100 -10 115 -3 15 -6 34 -6 42 0 22 -33 120 -54 160 -17 34 -67 86 -207
215 -91 85 -132 173 -143 312 -8 93 -1 244 13 265 2 5 6 16 8 25 8 41 47 133
56 133 6 0 8 3 5 8 -10 17 114 168 180 218 21 16 41 32 44 35 11 14 158 77
205 89 78 19 92 21 163 22 117 2 186 -13 293 -67 87 -44 139 -83 224 -170 89
-90 152 -198 172 -295 27 -131 21 -293 -14 -400 -24 -73 -71 -142 -131 -190
-207 -168 -257 -271 -266 -553 -1 -49 -31 -97 -61 -97 -7 0 -15 -6 -17 -12 -2
-7 -4 -845 -3 -1863 0 -1641 2 -1850 15 -1853 11 -2 35 46 87 180 40 101 78
197 84 213 7 17 13 32 14 35 1 3 5 14 10 25 4 11 23 58 42 105 19 47 38 94 43
105 5 11 21 49 36 85 14 36 32 79 39 95 8 17 32 75 55 130 50 120 163 380 195
450 12 28 33 73 45 100 72 161 80 179 169 368 34 71 61 130 61 133 0 2 66 138
146 302 81 163 147 299 146 302 0 3 3 10 8 15 8 10 31 53 185 350 43 83 81
152 84 155 3 3 20 32 36 65 17 33 33 62 38 63 4 2 7 12 7 22 0 10 4 21 9 24 5
3 24 32 41 64 30 53 220 379 240 412 77 124 130 213 130 220 0 4 4 10 8 12 4
1 19 21 32 43 133 221 520 769 665 940 21 25 38 71 19 52 -4 -4 -21 5 -38 18
-17 14 -36 29 -41 33 -110 80 -331 302 -485 487 -41 50 -78 92 -81 95 -13 11
-190 251 -240 325 -30 44 -57 82 -61 83 -5 2 -8 8 -8 13 0 5 -22 41 -49 81
-27 40 -58 90 -70 111 -36 64 -57 100 -88 152 -16 28 -36 65 -44 83 -7 17 -17
32 -21 32 -5 0 -8 5 -8 12 0 7 -20 50 -44 97 -36 72 -72 150 -146 326 -27 65
-108 294 -115 327 -2 9 -14 52 -26 95 -12 43 -22 86 -21 96 0 9 -5 18 -11 18
-7 1 -25 3 -42 4 -16 2 -57 6 -90 9 -33 4 -76 8 -95 11 -19 2 -66 7 -105 11
-38 3 -88 8 -110 10 -22 2 -87 6 -145 10 -58 3 -132 8 -165 11 -70 5 -892 13
-897 8z"/>
</g>
</svg>
